<mxfile host="app.diagrams.net" agent="Mozilla/5.0 (Windows NT 10.0; Win64; x64) AppleWebKit/537.36 (KHTML, like Gecko) Chrome/128.0.0.0 Safari/537.36" version="24.7.12">
  <diagram name="Página-1" id="QCrCfaFw36UPNGJQG-pu">
    <mxGraphModel grid="1" page="1" gridSize="10" guides="1" tooltips="1" connect="1" arrows="1" fold="1" pageScale="1" pageWidth="827" pageHeight="1169" background="none" math="0" shadow="0">
      <root>
        <mxCell id="0" />
        <mxCell id="1" parent="0" />
        <mxCell id="vkqAU-G4HcXmrahT7UT--8" value="NombreComp" style="ellipse;whiteSpace=wrap;html=1;movable=1;resizable=1;rotatable=1;deletable=1;editable=1;locked=0;connectable=1;" vertex="1" parent="1">
          <mxGeometry x="160" y="-90" width="90" height="40" as="geometry" />
        </mxCell>
        <mxCell id="vkqAU-G4HcXmrahT7UT--10" value="Nombre" style="ellipse;whiteSpace=wrap;html=1;movable=1;resizable=1;rotatable=1;deletable=1;editable=1;locked=0;connectable=1;" vertex="1" parent="1">
          <mxGeometry x="100" y="-40" width="80" height="40" as="geometry" />
        </mxCell>
        <mxCell id="f1zBCqjC82hzsTpn4rTU-1" value="Primer Apellido" style="ellipse;whiteSpace=wrap;html=1;movable=1;resizable=1;rotatable=1;deletable=1;editable=1;locked=0;connectable=1;" vertex="1" parent="1">
          <mxGeometry x="30" y="-90" width="80" height="40" as="geometry" />
        </mxCell>
        <mxCell id="f1zBCqjC82hzsTpn4rTU-2" value="Segundo Apellido" style="ellipse;whiteSpace=wrap;html=1;movable=1;resizable=1;rotatable=1;deletable=1;editable=1;locked=0;connectable=1;" vertex="1" parent="1">
          <mxGeometry x="90" y="-140" width="80" height="40" as="geometry" />
        </mxCell>
        <mxCell id="f1zBCqjC82hzsTpn4rTU-3" value="Nacionalidad" style="ellipse;whiteSpace=wrap;html=1;movable=1;resizable=1;rotatable=1;deletable=1;editable=1;locked=0;connectable=1;" vertex="1" parent="1">
          <mxGeometry x="180" y="-180" width="80" height="40" as="geometry" />
        </mxCell>
        <mxCell id="f1zBCqjC82hzsTpn4rTU-4" value="FechaNacimiento" style="ellipse;whiteSpace=wrap;html=1;movable=1;resizable=1;rotatable=1;deletable=1;editable=1;locked=0;connectable=1;" vertex="1" parent="1">
          <mxGeometry x="220" y="-230" width="120" height="40" as="geometry" />
        </mxCell>
        <mxCell id="f1zBCqjC82hzsTpn4rTU-11" value="d" style="strokeWidth=2;html=1;shape=mxgraph.flowchart.merge_or_storage;whiteSpace=wrap;" vertex="1" parent="1">
          <mxGeometry x="287.5" y="-40" width="65" height="40" as="geometry" />
        </mxCell>
        <mxCell id="f1zBCqjC82hzsTpn4rTU-13" value="Persona" style="whiteSpace=wrap;html=1;align=center;fontStyle=1;fillColor=#dae8fc;strokeColor=#6c8ebf;" vertex="1" parent="1">
          <mxGeometry x="270" y="-130" width="100" height="40" as="geometry" />
        </mxCell>
        <mxCell id="f1zBCqjC82hzsTpn4rTU-14" value="Atleta" style="whiteSpace=wrap;html=1;align=center;fontStyle=1;fillColor=#DAE8FC;strokeColor=#6c8ebf;" vertex="1" parent="1">
          <mxGeometry x="-260" y="90" width="100" height="40" as="geometry" />
        </mxCell>
        <mxCell id="f1zBCqjC82hzsTpn4rTU-15" value="Entrenador" style="whiteSpace=wrap;html=1;align=center;fontStyle=1;fillColor=#dae8fc;strokeColor=#6c8ebf;" vertex="1" parent="1">
          <mxGeometry x="260" y="90" width="100" height="40" as="geometry" />
        </mxCell>
        <mxCell id="f1zBCqjC82hzsTpn4rTU-16" value="Árbitro" style="whiteSpace=wrap;html=1;align=center;fillColor=#dae8fc;strokeColor=#6c8ebf;" vertex="1" parent="1">
          <mxGeometry x="600" y="200" width="100" height="40" as="geometry" />
        </mxCell>
        <mxCell id="f1zBCqjC82hzsTpn4rTU-17" value="Disciplina" style="whiteSpace=wrap;html=1;align=center;fontStyle=1;fillColor=#dae8fc;strokeColor=#6c8ebf;" vertex="1" parent="1">
          <mxGeometry x="260" y="410" width="100" height="40" as="geometry" />
        </mxCell>
        <mxCell id="f1zBCqjC82hzsTpn4rTU-27" value="" style="endArrow=none;html=1;rounded=0;entryX=0;entryY=0.5;entryDx=0;entryDy=0;" edge="1" parent="1" source="f1zBCqjC82hzsTpn4rTU-13" target="f1zBCqjC82hzsTpn4rTU-51">
          <mxGeometry relative="1" as="geometry">
            <mxPoint x="300" y="-30" as="sourcePoint" />
            <mxPoint x="484.8544793961719" y="-165.77443213654578" as="targetPoint" />
          </mxGeometry>
        </mxCell>
        <mxCell id="f1zBCqjC82hzsTpn4rTU-28" value="" style="endArrow=none;html=1;rounded=0;exitX=0.5;exitY=1;exitDx=0;exitDy=0;" edge="1" parent="1" source="f1zBCqjC82hzsTpn4rTU-3" target="f1zBCqjC82hzsTpn4rTU-13">
          <mxGeometry relative="1" as="geometry">
            <mxPoint x="300" y="-30" as="sourcePoint" />
            <mxPoint x="330" y="-140" as="targetPoint" />
          </mxGeometry>
        </mxCell>
        <mxCell id="f1zBCqjC82hzsTpn4rTU-29" value="" style="endArrow=none;html=1;rounded=0;" edge="1" parent="1" source="f1zBCqjC82hzsTpn4rTU-13" target="f1zBCqjC82hzsTpn4rTU-4">
          <mxGeometry relative="1" as="geometry">
            <mxPoint x="240" y="-211.18" as="sourcePoint" />
            <mxPoint x="400" y="-211.18" as="targetPoint" />
          </mxGeometry>
        </mxCell>
        <mxCell id="f1zBCqjC82hzsTpn4rTU-31" value="" style="endArrow=none;html=1;rounded=0;" edge="1" parent="1" source="f1zBCqjC82hzsTpn4rTU-13" target="vkqAU-G4HcXmrahT7UT--8">
          <mxGeometry relative="1" as="geometry">
            <mxPoint x="300" y="-30" as="sourcePoint" />
            <mxPoint x="460" y="-30" as="targetPoint" />
          </mxGeometry>
        </mxCell>
        <mxCell id="f1zBCqjC82hzsTpn4rTU-32" value="" style="endArrow=none;html=1;rounded=0;" edge="1" parent="1" source="vkqAU-G4HcXmrahT7UT--8" target="f1zBCqjC82hzsTpn4rTU-2">
          <mxGeometry relative="1" as="geometry">
            <mxPoint x="300" y="-30" as="sourcePoint" />
            <mxPoint x="460" y="-30" as="targetPoint" />
          </mxGeometry>
        </mxCell>
        <mxCell id="f1zBCqjC82hzsTpn4rTU-33" value="" style="endArrow=none;html=1;rounded=0;" edge="1" parent="1" source="vkqAU-G4HcXmrahT7UT--8" target="f1zBCqjC82hzsTpn4rTU-1">
          <mxGeometry relative="1" as="geometry">
            <mxPoint x="300" y="-30" as="sourcePoint" />
            <mxPoint x="460" y="-30" as="targetPoint" />
          </mxGeometry>
        </mxCell>
        <mxCell id="f1zBCqjC82hzsTpn4rTU-34" value="" style="endArrow=none;html=1;rounded=0;" edge="1" parent="1" source="vkqAU-G4HcXmrahT7UT--8" target="vkqAU-G4HcXmrahT7UT--10">
          <mxGeometry relative="1" as="geometry">
            <mxPoint x="300" y="-30" as="sourcePoint" />
            <mxPoint x="460" y="-30" as="targetPoint" />
          </mxGeometry>
        </mxCell>
        <mxCell id="f1zBCqjC82hzsTpn4rTU-39" value="" style="shape=link;html=1;rounded=0;" edge="1" parent="1" source="f1zBCqjC82hzsTpn4rTU-11" target="f1zBCqjC82hzsTpn4rTU-13">
          <mxGeometry width="100" relative="1" as="geometry">
            <mxPoint x="320" y="-30" as="sourcePoint" />
            <mxPoint x="430" y="-30" as="targetPoint" />
          </mxGeometry>
        </mxCell>
        <mxCell id="f1zBCqjC82hzsTpn4rTU-40" value="" style="endArrow=none;html=1;rounded=0;exitX=0.208;exitY=0.525;exitDx=0;exitDy=0;exitPerimeter=0;" edge="1" parent="1" source="f1zBCqjC82hzsTpn4rTU-11" target="f1zBCqjC82hzsTpn4rTU-14">
          <mxGeometry width="50" height="50" relative="1" as="geometry">
            <mxPoint x="340" y="-60" as="sourcePoint" />
            <mxPoint x="240" y="-20" as="targetPoint" />
          </mxGeometry>
        </mxCell>
        <mxCell id="f1zBCqjC82hzsTpn4rTU-41" value="" style="endArrow=none;html=1;rounded=0;" edge="1" parent="1" source="f1zBCqjC82hzsTpn4rTU-11" target="f1zBCqjC82hzsTpn4rTU-15">
          <mxGeometry width="50" height="50" relative="1" as="geometry">
            <mxPoint x="347.76880699088156" y="-129.72000000000003" as="sourcePoint" />
            <mxPoint x="209.76880699088156" y="-44.72000000000003" as="targetPoint" />
          </mxGeometry>
        </mxCell>
        <mxCell id="f1zBCqjC82hzsTpn4rTU-42" value="" style="endArrow=none;html=1;rounded=0;entryX=0.757;entryY=0.441;entryDx=0;entryDy=0;entryPerimeter=0;" edge="1" parent="1" source="f1zBCqjC82hzsTpn4rTU-16" target="f1zBCqjC82hzsTpn4rTU-11">
          <mxGeometry width="50" height="50" relative="1" as="geometry">
            <mxPoint x="347.76880699088156" y="-129.72000000000003" as="sourcePoint" />
            <mxPoint x="209.76880699088156" y="-44.72000000000003" as="targetPoint" />
            <Array as="points" />
          </mxGeometry>
        </mxCell>
        <mxCell id="f1zBCqjC82hzsTpn4rTU-46" value="Género" style="ellipse;whiteSpace=wrap;html=1;align=center;" vertex="1" parent="1">
          <mxGeometry x="350" y="-220" width="100" height="40" as="geometry" />
        </mxCell>
        <mxCell id="f1zBCqjC82hzsTpn4rTU-48" value="" style="endArrow=none;html=1;rounded=0;" edge="1" parent="1" source="f1zBCqjC82hzsTpn4rTU-46" target="f1zBCqjC82hzsTpn4rTU-13">
          <mxGeometry width="50" height="50" relative="1" as="geometry">
            <mxPoint x="407.76880699088156" y="-79.72000000000003" as="sourcePoint" />
            <mxPoint x="269.76880699088156" y="5.279999999999973" as="targetPoint" />
          </mxGeometry>
        </mxCell>
        <mxCell id="f1zBCqjC82hzsTpn4rTU-49" value="Supervisa" style="shape=rhombus;perimeter=rhombusPerimeter;whiteSpace=wrap;html=1;align=center;fillColor=#d5e8d4;strokeColor=#82b366;" vertex="1" parent="1">
          <mxGeometry x="420" y="320" width="120" height="60" as="geometry" />
        </mxCell>
        <mxCell id="f1zBCqjC82hzsTpn4rTU-51" value="Teléfono" style="ellipse;shape=doubleEllipse;margin=3;whiteSpace=wrap;html=1;align=center;" vertex="1" parent="1">
          <mxGeometry x="410" y="-170" width="100" height="40" as="geometry" />
        </mxCell>
        <mxCell id="f1zBCqjC82hzsTpn4rTU-53" value="Localidad" style="shape=ext;margin=3;double=1;whiteSpace=wrap;html=1;align=center;fillColor=#dae8fc;strokeColor=#6c8ebf;" vertex="1" parent="1">
          <mxGeometry x="260" y="620" width="100" height="40" as="geometry" />
        </mxCell>
        <mxCell id="f1zBCqjC82hzsTpn4rTU-55" value="Pertenece" style="shape=rhombus;perimeter=rhombusPerimeter;whiteSpace=wrap;html=1;align=center;fillColor=#d5e8d4;strokeColor=#82b366;" vertex="1" parent="1">
          <mxGeometry x="250" y="230" width="120" height="60" as="geometry" />
        </mxCell>
        <mxCell id="f1zBCqjC82hzsTpn4rTU-60" value="" style="endArrow=classic;html=1;rounded=0;entryX=0;entryY=0.5;entryDx=0;entryDy=0;" edge="1" parent="1" source="f1zBCqjC82hzsTpn4rTU-14" target="f1zBCqjC82hzsTpn4rTU-15">
          <mxGeometry width="50" height="50" relative="1" as="geometry">
            <mxPoint x="310" y="180" as="sourcePoint" />
            <mxPoint x="360" y="130" as="targetPoint" />
          </mxGeometry>
        </mxCell>
        <mxCell id="f1zBCqjC82hzsTpn4rTU-43" value="Entrenar" style="shape=rhombus;perimeter=rhombusPerimeter;whiteSpace=wrap;html=1;align=center;fillColor=#d5e8d4;strokeColor=#82b366;" vertex="1" parent="1">
          <mxGeometry x="-10" y="80" width="120" height="60" as="geometry" />
        </mxCell>
        <mxCell id="f1zBCqjC82hzsTpn4rTU-61" value="" style="shape=link;html=1;rounded=0;" edge="1" parent="1" source="f1zBCqjC82hzsTpn4rTU-55" target="f1zBCqjC82hzsTpn4rTU-15">
          <mxGeometry width="100" relative="1" as="geometry">
            <mxPoint x="280" y="270" as="sourcePoint" />
            <mxPoint x="380" y="270" as="targetPoint" />
          </mxGeometry>
        </mxCell>
        <mxCell id="f1zBCqjC82hzsTpn4rTU-62" value="" style="endArrow=classic;html=1;rounded=0;" edge="1" parent="1" target="f1zBCqjC82hzsTpn4rTU-17">
          <mxGeometry width="50" height="50" relative="1" as="geometry">
            <mxPoint x="310" y="290" as="sourcePoint" />
            <mxPoint x="360" y="240" as="targetPoint" />
          </mxGeometry>
        </mxCell>
        <mxCell id="f1zBCqjC82hzsTpn4rTU-65" value="" style="shape=flexArrow;endArrow=classic;html=1;rounded=0;entryX=1;entryY=1;entryDx=0;entryDy=0;exitX=0;exitY=0.5;exitDx=0;exitDy=0;" edge="1" parent="1" source="f1zBCqjC82hzsTpn4rTU-66" target="f1zBCqjC82hzsTpn4rTU-14">
          <mxGeometry width="50" height="50" relative="1" as="geometry">
            <mxPoint x="20" y="240" as="sourcePoint" />
            <mxPoint x="-90" y="190" as="targetPoint" />
          </mxGeometry>
        </mxCell>
        <mxCell id="f1zBCqjC82hzsTpn4rTU-66" value="Participa" style="shape=rhombus;perimeter=rhombusPerimeter;whiteSpace=wrap;html=1;align=center;fillColor=#d5e8d4;strokeColor=#82b366;" vertex="1" parent="1">
          <mxGeometry y="230" width="120" height="60" as="geometry" />
        </mxCell>
        <mxCell id="f1zBCqjC82hzsTpn4rTU-68" value="" style="shape=flexArrow;endArrow=classic;html=1;rounded=0;entryX=0;entryY=0.25;entryDx=0;entryDy=0;exitX=1;exitY=0.5;exitDx=0;exitDy=0;width=12.857142857142858;endSize=9.157142857142858;" edge="1" parent="1" source="f1zBCqjC82hzsTpn4rTU-66">
          <mxGeometry width="50" height="50" relative="1" as="geometry">
            <mxPoint x="130" y="250" as="sourcePoint" />
            <mxPoint x="270" y="410" as="targetPoint" />
          </mxGeometry>
        </mxCell>
        <mxCell id="f1zBCqjC82hzsTpn4rTU-69" value="&lt;u&gt;NombreDisciplina&lt;/u&gt;" style="ellipse;whiteSpace=wrap;html=1;align=center;fillColor=#fff2cc;strokeColor=#d6b656;" vertex="1" parent="1">
          <mxGeometry x="470" y="470" width="110" height="40" as="geometry" />
        </mxCell>
        <mxCell id="f1zBCqjC82hzsTpn4rTU-71" value="NumParticipantes" style="ellipse;whiteSpace=wrap;html=1;align=center;" vertex="1" parent="1">
          <mxGeometry x="400" y="550" width="110" height="40" as="geometry" />
        </mxCell>
        <mxCell id="f1zBCqjC82hzsTpn4rTU-72" value="Categoría" style="ellipse;whiteSpace=wrap;html=1;align=center;" vertex="1" parent="1">
          <mxGeometry x="490" y="520" width="100" height="40" as="geometry" />
        </mxCell>
        <mxCell id="f1zBCqjC82hzsTpn4rTU-74" value="" style="endArrow=classic;html=1;rounded=0;shape=flexArrow;exitX=0;exitY=0.5;exitDx=0;exitDy=0;" edge="1" parent="1" source="f1zBCqjC82hzsTpn4rTU-49" target="f1zBCqjC82hzsTpn4rTU-17">
          <mxGeometry width="50" height="50" relative="1" as="geometry">
            <mxPoint x="310" y="410" as="sourcePoint" />
            <mxPoint x="360" y="360" as="targetPoint" />
          </mxGeometry>
        </mxCell>
        <mxCell id="f1zBCqjC82hzsTpn4rTU-75" value="" style="endArrow=none;html=1;rounded=0;" edge="1" parent="1" source="f1zBCqjC82hzsTpn4rTU-17" target="f1zBCqjC82hzsTpn4rTU-72">
          <mxGeometry width="50" height="50" relative="1" as="geometry">
            <mxPoint x="397.76880699088156" y="460.28" as="sourcePoint" />
            <mxPoint x="259.76880699088156" y="545.28" as="targetPoint" />
          </mxGeometry>
        </mxCell>
        <mxCell id="f1zBCqjC82hzsTpn4rTU-76" value="" style="endArrow=none;html=1;rounded=0;" edge="1" parent="1" source="f1zBCqjC82hzsTpn4rTU-17" target="f1zBCqjC82hzsTpn4rTU-69">
          <mxGeometry width="50" height="50" relative="1" as="geometry">
            <mxPoint x="397.76880699088156" y="460.28" as="sourcePoint" />
            <mxPoint x="259.76880699088156" y="545.28" as="targetPoint" />
          </mxGeometry>
        </mxCell>
        <mxCell id="f1zBCqjC82hzsTpn4rTU-77" value="" style="endArrow=none;html=1;rounded=0;" edge="1" parent="1" source="f1zBCqjC82hzsTpn4rTU-17" target="f1zBCqjC82hzsTpn4rTU-71">
          <mxGeometry width="50" height="50" relative="1" as="geometry">
            <mxPoint x="397.76880699088156" y="460.28" as="sourcePoint" />
            <mxPoint x="259.76880699088156" y="545.28" as="targetPoint" />
          </mxGeometry>
        </mxCell>
        <mxCell id="f1zBCqjC82hzsTpn4rTU-80" value="Tipo" style="ellipse;whiteSpace=wrap;html=1;align=center;" vertex="1" parent="1">
          <mxGeometry x="414" y="630" width="100" height="40" as="geometry" />
        </mxCell>
        <mxCell id="f1zBCqjC82hzsTpn4rTU-81" value="IDPersona" style="ellipse;whiteSpace=wrap;html=1;align=center;fontStyle=4;fillColor=#fff2cc;strokeColor=#d6b656;" vertex="1" parent="1">
          <mxGeometry x="380" y="-70" width="100" height="40" as="geometry" />
        </mxCell>
        <mxCell id="f1zBCqjC82hzsTpn4rTU-83" value="" style="endArrow=none;html=1;rounded=0;" edge="1" parent="1" source="f1zBCqjC82hzsTpn4rTU-81" target="f1zBCqjC82hzsTpn4rTU-13">
          <mxGeometry width="50" height="50" relative="1" as="geometry">
            <mxPoint x="407.76880699088156" y="-79.72000000000003" as="sourcePoint" />
            <mxPoint x="269.76880699088156" y="5.279999999999973" as="targetPoint" />
          </mxGeometry>
        </mxCell>
        <mxCell id="f1zBCqjC82hzsTpn4rTU-84" value="Ubicar" style="shape=rhombus;double=1;perimeter=rhombusPerimeter;whiteSpace=wrap;html=1;align=center;fillColor=#d5e8d4;strokeColor=#82b366;" vertex="1" parent="1">
          <mxGeometry x="250" y="510" width="120" height="60" as="geometry" />
        </mxCell>
        <mxCell id="f1zBCqjC82hzsTpn4rTU-85" value="" style="endArrow=none;html=1;rounded=0;entryX=1;entryY=0;entryDx=0;entryDy=0;" edge="1" parent="1" source="f1zBCqjC82hzsTpn4rTU-53" target="mH0adXcuigVSKNQ7jDRi-12">
          <mxGeometry width="50" height="50" relative="1" as="geometry">
            <mxPoint x="397.76880699088156" y="580.28" as="sourcePoint" />
            <mxPoint x="234.9772392408031" y="670.7082248263387" as="targetPoint" />
          </mxGeometry>
        </mxCell>
        <mxCell id="f1zBCqjC82hzsTpn4rTU-86" value="" style="endArrow=none;html=1;rounded=0;" edge="1" parent="1" source="f1zBCqjC82hzsTpn4rTU-53">
          <mxGeometry width="50" height="50" relative="1" as="geometry">
            <mxPoint x="320" y="630" as="sourcePoint" />
            <mxPoint x="310" y="705" as="targetPoint" />
          </mxGeometry>
        </mxCell>
        <mxCell id="f1zBCqjC82hzsTpn4rTU-87" value="" style="endArrow=none;html=1;rounded=0;" edge="1" parent="1" source="f1zBCqjC82hzsTpn4rTU-80" target="f1zBCqjC82hzsTpn4rTU-53">
          <mxGeometry width="50" height="50" relative="1" as="geometry">
            <mxPoint x="397.76880699088156" y="580.28" as="sourcePoint" />
            <mxPoint x="259.76880699088156" y="665.28" as="targetPoint" />
          </mxGeometry>
        </mxCell>
        <mxCell id="f1zBCqjC82hzsTpn4rTU-88" value="Calle" style="ellipse;whiteSpace=wrap;html=1;align=center;" vertex="1" parent="1">
          <mxGeometry x="140" y="745" width="100" height="40" as="geometry" />
        </mxCell>
        <mxCell id="f1zBCqjC82hzsTpn4rTU-89" value="Número" style="ellipse;whiteSpace=wrap;html=1;align=center;" vertex="1" parent="1">
          <mxGeometry x="220" y="795" width="100" height="40" as="geometry" />
        </mxCell>
        <mxCell id="f1zBCqjC82hzsTpn4rTU-90" value="Ciudad" style="ellipse;whiteSpace=wrap;html=1;align=center;" vertex="1" parent="1">
          <mxGeometry x="330" y="785" width="90" height="40" as="geometry" />
        </mxCell>
        <mxCell id="f1zBCqjC82hzsTpn4rTU-91" value="País" style="ellipse;whiteSpace=wrap;html=1;align=center;" vertex="1" parent="1">
          <mxGeometry x="390" y="745" width="100" height="40" as="geometry" />
        </mxCell>
        <mxCell id="f1zBCqjC82hzsTpn4rTU-92" value="" style="endArrow=none;html=1;rounded=0;" edge="1" parent="1" target="f1zBCqjC82hzsTpn4rTU-88">
          <mxGeometry width="50" height="50" relative="1" as="geometry">
            <mxPoint x="271.5889360201272" y="737.8036879932906" as="sourcePoint" />
            <mxPoint x="259.76880699088156" y="760.28" as="targetPoint" />
          </mxGeometry>
        </mxCell>
        <mxCell id="f1zBCqjC82hzsTpn4rTU-93" value="" style="endArrow=none;html=1;rounded=0;" edge="1" parent="1" target="f1zBCqjC82hzsTpn4rTU-89">
          <mxGeometry width="50" height="50" relative="1" as="geometry">
            <mxPoint x="301.320255643981" y="744.6963429617354" as="sourcePoint" />
            <mxPoint x="259.76880699088156" y="760.28" as="targetPoint" />
          </mxGeometry>
        </mxCell>
        <mxCell id="f1zBCqjC82hzsTpn4rTU-94" value="" style="endArrow=none;html=1;rounded=0;entryX=0.239;entryY=0.206;entryDx=0;entryDy=0;entryPerimeter=0;" edge="1" parent="1" target="f1zBCqjC82hzsTpn4rTU-90">
          <mxGeometry width="50" height="50" relative="1" as="geometry">
            <mxPoint x="321.7320266551701" y="744.4416441714252" as="sourcePoint" />
            <mxPoint x="259.76880699088156" y="760.28" as="targetPoint" />
          </mxGeometry>
        </mxCell>
        <mxCell id="f1zBCqjC82hzsTpn4rTU-95" value="" style="endArrow=none;html=1;rounded=0;" edge="1" parent="1" source="f1zBCqjC82hzsTpn4rTU-91">
          <mxGeometry width="50" height="50" relative="1" as="geometry">
            <mxPoint x="397.76880699088156" y="675.28" as="sourcePoint" />
            <mxPoint x="349.5642500696131" y="737.228950021517" as="targetPoint" />
          </mxGeometry>
        </mxCell>
        <mxCell id="f1zBCqjC82hzsTpn4rTU-104" value="Participantes" style="ellipse;whiteSpace=wrap;html=1;align=center;" vertex="1" parent="1">
          <mxGeometry x="-330" y="682.5" width="100" height="40" as="geometry" />
        </mxCell>
        <mxCell id="f1zBCqjC82hzsTpn4rTU-105" value="Precio" style="ellipse;whiteSpace=wrap;html=1;align=center;" vertex="1" parent="1">
          <mxGeometry x="-310" y="612.5" width="100" height="40" as="geometry" />
        </mxCell>
        <mxCell id="f1zBCqjC82hzsTpn4rTU-106" value="" style="endArrow=none;html=1;rounded=0;entryX=1;entryY=1;entryDx=0;entryDy=0;exitX=0;exitY=0;exitDx=0;exitDy=0;" edge="1" parent="1" source="o7-nBCWL6oB6dUf7lMq--11" target="f1zBCqjC82hzsTpn4rTU-105">
          <mxGeometry relative="1" as="geometry">
            <mxPoint x="-360" y="692.5" as="sourcePoint" />
            <mxPoint x="-200" y="692.5" as="targetPoint" />
          </mxGeometry>
        </mxCell>
        <mxCell id="f1zBCqjC82hzsTpn4rTU-107" value="" style="endArrow=none;html=1;rounded=0;entryX=1;entryY=0.5;entryDx=0;entryDy=0;exitX=0;exitY=0.5;exitDx=0;exitDy=0;" edge="1" parent="1" source="o7-nBCWL6oB6dUf7lMq--11" target="f1zBCqjC82hzsTpn4rTU-104">
          <mxGeometry relative="1" as="geometry">
            <mxPoint x="-440" y="699.1229936931732" as="sourcePoint" />
            <mxPoint x="-200" y="692.5" as="targetPoint" />
          </mxGeometry>
        </mxCell>
        <mxCell id="f1zBCqjC82hzsTpn4rTU-108" value="" style="endArrow=none;html=1;rounded=0;entryX=0.5;entryY=1;entryDx=0;entryDy=0;" edge="1" parent="1" target="o7-nBCWL6oB6dUf7lMq--22">
          <mxGeometry relative="1" as="geometry">
            <mxPoint x="-130" y="690" as="sourcePoint" />
            <mxPoint x="-120" y="767.5" as="targetPoint" />
          </mxGeometry>
        </mxCell>
        <mxCell id="f1zBCqjC82hzsTpn4rTU-109" value="" style="endArrow=none;html=1;rounded=0;exitX=0;exitY=1;exitDx=0;exitDy=0;" edge="1" parent="1" source="o7-nBCWL6oB6dUf7lMq--11">
          <mxGeometry relative="1" as="geometry">
            <mxPoint x="-360" y="692.5" as="sourcePoint" />
            <mxPoint x="-238.65615782363125" y="756.9176327466052" as="targetPoint" />
          </mxGeometry>
        </mxCell>
        <mxCell id="f1zBCqjC82hzsTpn4rTU-111" value="JuegaDisciplina" style="ellipse;shape=doubleEllipse;margin=3;whiteSpace=wrap;html=1;align=center;" vertex="1" parent="1">
          <mxGeometry x="10" y="170" width="100" height="40" as="geometry" />
        </mxCell>
        <mxCell id="f1zBCqjC82hzsTpn4rTU-113" value="EntrenaDisciplina" style="ellipse;whiteSpace=wrap;html=1;align=center;" vertex="1" parent="1">
          <mxGeometry x="390" y="240" width="100" height="40" as="geometry" />
        </mxCell>
        <mxCell id="f1zBCqjC82hzsTpn4rTU-114" value="" style="endArrow=none;html=1;rounded=0;exitX=1;exitY=0.5;exitDx=0;exitDy=0;" edge="1" parent="1" source="f1zBCqjC82hzsTpn4rTU-55" target="f1zBCqjC82hzsTpn4rTU-113">
          <mxGeometry relative="1" as="geometry">
            <mxPoint x="100" y="50" as="sourcePoint" />
            <mxPoint x="260" y="50" as="targetPoint" />
          </mxGeometry>
        </mxCell>
        <mxCell id="f1zBCqjC82hzsTpn4rTU-115" value="" style="endArrow=none;html=1;rounded=0;" edge="1" parent="1" source="f1zBCqjC82hzsTpn4rTU-66" target="f1zBCqjC82hzsTpn4rTU-111">
          <mxGeometry relative="1" as="geometry">
            <mxPoint x="100" y="50" as="sourcePoint" />
            <mxPoint x="260" y="50" as="targetPoint" />
          </mxGeometry>
        </mxCell>
        <mxCell id="f1zBCqjC82hzsTpn4rTU-116" value="" style="shape=link;html=1;rounded=0;" edge="1" parent="1" source="f1zBCqjC82hzsTpn4rTU-16" target="f1zBCqjC82hzsTpn4rTU-49">
          <mxGeometry width="100" relative="1" as="geometry">
            <mxPoint y="500" as="sourcePoint" />
            <mxPoint x="550" y="340" as="targetPoint" />
          </mxGeometry>
        </mxCell>
        <mxCell id="fMwPx2uLLaWgfthnUd-A-1" value="Patrocinador" style="whiteSpace=wrap;html=1;align=center;fontStyle=1;fillColor=#dae8fc;strokeColor=#6c8ebf;" vertex="1" parent="1">
          <mxGeometry x="620" y="410" width="100" height="40" as="geometry" />
        </mxCell>
        <mxCell id="cxBHX1C2nxwxFBKa3v35-2" value="aforo" style="ellipse;whiteSpace=wrap;html=1;align=center;" vertex="1" parent="1">
          <mxGeometry x="370" y="690" width="100" height="40" as="geometry" />
        </mxCell>
        <mxCell id="o7-nBCWL6oB6dUf7lMq--1" value="Representa" style="shape=rhombus;perimeter=rhombusPerimeter;whiteSpace=wrap;html=1;align=center;fillColor=#d5e8d4;strokeColor=#82b366;" vertex="1" parent="1">
          <mxGeometry x="-270" width="120" height="60" as="geometry" />
        </mxCell>
        <mxCell id="cxBHX1C2nxwxFBKa3v35-3" value="Patrocina" style="shape=rhombus;perimeter=rhombusPerimeter;whiteSpace=wrap;html=1;align=center;fillColor=#d5e8d4;strokeColor=#82b366;" vertex="1" parent="1">
          <mxGeometry x="440" y="400" width="120" height="60" as="geometry" />
        </mxCell>
        <mxCell id="o7-nBCWL6oB6dUf7lMq--2" value="" style="endArrow=none;html=1;rounded=0;exitX=0.5;exitY=1;exitDx=0;exitDy=0;entryX=0.5;entryY=0;entryDx=0;entryDy=0;shape=link;" edge="1" parent="1" source="o7-nBCWL6oB6dUf7lMq--1" target="f1zBCqjC82hzsTpn4rTU-14">
          <mxGeometry width="50" height="50" relative="1" as="geometry">
            <mxPoint x="340" y="-55" as="sourcePoint" />
            <mxPoint x="-150" y="104" as="targetPoint" />
          </mxGeometry>
        </mxCell>
        <mxCell id="o7-nBCWL6oB6dUf7lMq--3" value="" style="endArrow=none;html=1;rounded=0;exitX=1;exitY=0.5;exitDx=0;exitDy=0;startArrow=block;startFill=0;shape=flexArrow;entryX=0;entryY=0.5;entryDx=0;entryDy=0;strokeWidth=2;endFill=0;targetPerimeterSpacing=0;endSize=0;startSize=4.529166666666667;shadow=0;flowAnimation=0;fillColor=none;width=4;startWidth=11.25;" edge="1" parent="1" source="mH0adXcuigVSKNQ7jDRi-5" target="o7-nBCWL6oB6dUf7lMq--1">
          <mxGeometry width="50" height="50" relative="1" as="geometry">
            <mxPoint x="-323.0000000000002" y="30.000000000000227" as="sourcePoint" />
            <mxPoint x="-260" y="40" as="targetPoint" />
          </mxGeometry>
        </mxCell>
        <mxCell id="cxBHX1C2nxwxFBKa3v35-8" value="" style="endArrow=none;html=1;rounded=0;entryX=0.75;entryY=1;entryDx=0;entryDy=0;exitX=0;exitY=0;exitDx=0;exitDy=0;" edge="1" parent="1" source="cxBHX1C2nxwxFBKa3v35-2" target="f1zBCqjC82hzsTpn4rTU-53">
          <mxGeometry width="50" height="50" relative="1" as="geometry">
            <mxPoint x="416.5" y="703" as="sourcePoint" />
            <mxPoint x="342.5" y="690" as="targetPoint" />
          </mxGeometry>
        </mxCell>
        <mxCell id="o7-nBCWL6oB6dUf7lMq--6" value="Año" style="ellipse;whiteSpace=wrap;html=1;align=center;" vertex="1" parent="1">
          <mxGeometry x="-190" y="-50" width="100" height="40" as="geometry" />
        </mxCell>
        <mxCell id="o7-nBCWL6oB6dUf7lMq--8" value="&lt;span style=&quot;border-bottom: 1px dotted&quot;&gt;Nombre&lt;/span&gt;" style="ellipse;whiteSpace=wrap;html=1;align=center;fillColor=#fff2cc;strokeColor=#d6b656;" vertex="1" parent="1">
          <mxGeometry x="-323" y="-50" width="100" height="40" as="geometry" />
        </mxCell>
        <mxCell id="o7-nBCWL6oB6dUf7lMq--9" value="" style="endArrow=none;html=1;rounded=0;exitX=1;exitY=0;exitDx=0;exitDy=0;entryX=0.5;entryY=1;entryDx=0;entryDy=0;" edge="1" parent="1" source="o7-nBCWL6oB6dUf7lMq--1" target="o7-nBCWL6oB6dUf7lMq--6">
          <mxGeometry width="50" height="50" relative="1" as="geometry">
            <mxPoint x="340" y="-55" as="sourcePoint" />
            <mxPoint x="-150" y="104" as="targetPoint" />
          </mxGeometry>
        </mxCell>
        <mxCell id="o7-nBCWL6oB6dUf7lMq--10" value="" style="endArrow=none;html=1;rounded=0;exitX=0;exitY=0;exitDx=0;exitDy=0;entryX=0.5;entryY=1;entryDx=0;entryDy=0;" edge="1" parent="1" source="o7-nBCWL6oB6dUf7lMq--1" target="o7-nBCWL6oB6dUf7lMq--8">
          <mxGeometry width="50" height="50" relative="1" as="geometry">
            <mxPoint x="-230" y="25" as="sourcePoint" />
            <mxPoint x="-290" y="20" as="targetPoint" />
          </mxGeometry>
        </mxCell>
        <mxCell id="o7-nBCWL6oB6dUf7lMq--11" value="Eventos" style="whiteSpace=wrap;html=1;align=center;fontStyle=1;fillColor=#dae8fc;strokeColor=#6c8ebf;" vertex="1" parent="1">
          <mxGeometry x="-170" y="682.5" width="100" height="40" as="geometry" />
        </mxCell>
        <mxCell id="mH0adXcuigVSKNQ7jDRi-7" value="" style="endArrow=none;html=1;rounded=0;exitX=1;exitY=0.5;exitDx=0;exitDy=0;entryX=0;entryY=0.5;entryDx=0;entryDy=0;startArrow=classic;startFill=1;" edge="1" parent="1" source="f1zBCqjC82hzsTpn4rTU-17" target="cxBHX1C2nxwxFBKa3v35-3">
          <mxGeometry width="50" height="50" relative="1" as="geometry">
            <mxPoint x="727.9988069908816" y="365" as="sourcePoint" />
            <mxPoint x="589.9988069908816" y="450" as="targetPoint" />
            <Array as="points" />
          </mxGeometry>
        </mxCell>
        <mxCell id="cxBHX1C2nxwxFBKa3v35-12" value="Finalizar" style="shape=rhombus;perimeter=rhombusPerimeter;whiteSpace=wrap;html=1;align=center;fillColor=#d5e8d4;strokeColor=#82b366;" vertex="1" parent="1">
          <mxGeometry x="30" y="380" width="120" height="60" as="geometry" />
        </mxCell>
        <mxCell id="mH0adXcuigVSKNQ7jDRi-8" value="" style="shape=flexArrow;endArrow=classic;html=1;rounded=0;entryX=0.5;entryY=0;entryDx=0;entryDy=0;exitX=0.5;exitY=1;exitDx=0;exitDy=0;" edge="1" parent="1" source="f1zBCqjC82hzsTpn4rTU-84" target="f1zBCqjC82hzsTpn4rTU-53">
          <mxGeometry width="50" height="50" relative="1" as="geometry">
            <mxPoint x="430" y="590" as="sourcePoint" />
            <mxPoint x="480" y="540" as="targetPoint" />
          </mxGeometry>
        </mxCell>
        <mxCell id="mH0adXcuigVSKNQ7jDRi-11" value="" style="shape=flexArrow;endArrow=classic;html=1;rounded=0;entryX=0.5;entryY=1;entryDx=0;entryDy=0;" edge="1" parent="1" target="f1zBCqjC82hzsTpn4rTU-17">
          <mxGeometry width="50" height="50" relative="1" as="geometry">
            <mxPoint x="310" y="510" as="sourcePoint" />
            <mxPoint x="360" y="460" as="targetPoint" />
          </mxGeometry>
        </mxCell>
        <mxCell id="mH0adXcuigVSKNQ7jDRi-12" value="&lt;span style=&quot;border-bottom: 1px dotted&quot;&gt;Nombre&lt;/span&gt;" style="ellipse;whiteSpace=wrap;html=1;align=center;fillColor=#fff2cc;strokeColor=#d6b656;" vertex="1" parent="1">
          <mxGeometry x="140" y="665" width="100" height="40" as="geometry" />
        </mxCell>
        <mxCell id="cxBHX1C2nxwxFBKa3v35-20" value="" style="endArrow=none;html=1;rounded=0;entryX=0;entryY=0.5;entryDx=0;entryDy=0;exitX=1;exitY=0.5;exitDx=0;exitDy=0;" edge="1" parent="1" source="o7-nBCWL6oB6dUf7lMq--36" target="cxBHX1C2nxwxFBKa3v35-12">
          <mxGeometry width="50" height="50" relative="1" as="geometry">
            <mxPoint x="-49.99999999999977" y="410" as="sourcePoint" />
            <mxPoint x="600" y="630" as="targetPoint" />
          </mxGeometry>
        </mxCell>
        <mxCell id="SwHU3Nb_tAXpoa3BWpgK-4" style="edgeStyle=orthogonalEdgeStyle;rounded=0;orthogonalLoop=1;jettySize=auto;html=1;exitX=0.5;exitY=1;exitDx=0;exitDy=0;" edge="1" parent="1">
          <mxGeometry relative="1" as="geometry">
            <mxPoint x="-270" y="792.5" as="sourcePoint" />
            <mxPoint x="-270" y="792.5" as="targetPoint" />
          </mxGeometry>
        </mxCell>
        <mxCell id="mH0adXcuigVSKNQ7jDRi-13" value="&lt;span style=&quot;border-bottom: 1px dotted&quot;&gt;Disciplina&lt;/span&gt;" style="ellipse;whiteSpace=wrap;html=1;align=center;fillColor=#fff2cc;strokeColor=#d6b656;" vertex="1" parent="1">
          <mxGeometry x="260" y="705" width="100" height="40" as="geometry" />
        </mxCell>
        <mxCell id="cxBHX1C2nxwxFBKa3v35-22" value="" style="endArrow=none;html=1;rounded=0;entryX=0.5;entryY=1;entryDx=0;entryDy=0;exitX=0.5;exitY=0;exitDx=0;exitDy=0;" edge="1" parent="1" source="o7-nBCWL6oB6dUf7lMq--50" target="o7-nBCWL6oB6dUf7lMq--36">
          <mxGeometry width="50" height="50" relative="1" as="geometry">
            <mxPoint x="-201" y="488" as="sourcePoint" />
            <mxPoint x="-209.99999999999977" y="410" as="targetPoint" />
          </mxGeometry>
        </mxCell>
        <mxCell id="o7-nBCWL6oB6dUf7lMq--18" value="Esta" style="shape=rhombus;double=1;perimeter=rhombusPerimeter;whiteSpace=wrap;html=1;align=center;fillColor=#d5e8d4;strokeColor=#82b366;" vertex="1" parent="1">
          <mxGeometry x="-20" y="560" width="120" height="60" as="geometry" />
        </mxCell>
        <mxCell id="o7-nBCWL6oB6dUf7lMq--19" value="" style="endArrow=block;html=1;rounded=0;exitX=0;exitY=0.5;exitDx=0;exitDy=0;entryX=0.75;entryY=0;entryDx=0;entryDy=0;shape=flexArrow;startArrow=none;startFill=0;" edge="1" parent="1" source="o7-nBCWL6oB6dUf7lMq--18" target="o7-nBCWL6oB6dUf7lMq--11">
          <mxGeometry width="50" height="50" relative="1" as="geometry">
            <mxPoint x="30" y="670" as="sourcePoint" />
            <mxPoint x="-60" y="713" as="targetPoint" />
          </mxGeometry>
        </mxCell>
        <mxCell id="o7-nBCWL6oB6dUf7lMq--20" value="" style="endArrow=block;html=1;rounded=0;entryX=0;entryY=1;entryDx=0;entryDy=0;shape=flexArrow;startArrow=none;startFill=0;exitX=1;exitY=0.5;exitDx=0;exitDy=0;" edge="1" parent="1" source="o7-nBCWL6oB6dUf7lMq--18" target="f1zBCqjC82hzsTpn4rTU-17">
          <mxGeometry width="50" height="50" relative="1" as="geometry">
            <mxPoint x="200" y="500" as="sourcePoint" />
            <mxPoint x="-60" y="713" as="targetPoint" />
          </mxGeometry>
        </mxCell>
        <mxCell id="mH0adXcuigVSKNQ7jDRi-15" value="" style="shape=link;html=1;rounded=0;entryX=0;entryY=1;entryDx=0;entryDy=0;exitX=1;exitY=0.5;exitDx=0;exitDy=0;endArrow=none;endFill=0;startArrow=block;" edge="1" parent="1" source="o7-nBCWL6oB6dUf7lMq--11" target="f1zBCqjC82hzsTpn4rTU-84">
          <mxGeometry width="100" relative="1" as="geometry">
            <mxPoint x="-50" y="709.41" as="sourcePoint" />
            <mxPoint x="20" y="660" as="targetPoint" />
          </mxGeometry>
        </mxCell>
        <mxCell id="o7-nBCWL6oB6dUf7lMq--22" value="DuraciónMax" style="ellipse;whiteSpace=wrap;html=1;align=center;" vertex="1" parent="1">
          <mxGeometry x="-190" y="610" width="100" height="40" as="geometry" />
        </mxCell>
        <mxCell id="o7-nBCWL6oB6dUf7lMq--23" value="EntradasV" style="ellipse;whiteSpace=wrap;html=1;align=center;" vertex="1" parent="1">
          <mxGeometry x="-40" y="730" width="100" height="40" as="geometry" />
        </mxCell>
        <mxCell id="o7-nBCWL6oB6dUf7lMq--24" value="" style="endArrow=none;html=1;rounded=0;entryX=1;entryY=1;entryDx=0;entryDy=0;exitX=0;exitY=0;exitDx=0;exitDy=0;" edge="1" parent="1" source="o7-nBCWL6oB6dUf7lMq--23" target="o7-nBCWL6oB6dUf7lMq--11">
          <mxGeometry relative="1" as="geometry">
            <mxPoint x="-120" y="700" as="sourcePoint" />
            <mxPoint x="-130" y="660" as="targetPoint" />
            <Array as="points" />
          </mxGeometry>
        </mxCell>
        <mxCell id="o7-nBCWL6oB6dUf7lMq--26" value="Fase" style="shape=ext;margin=3;double=1;whiteSpace=wrap;html=1;align=center;fillColor=#dae8fc;strokeColor=#6c8ebf;fontStyle=1" vertex="1" parent="1">
          <mxGeometry x="-170" y="850" width="100" height="40" as="geometry" />
        </mxCell>
        <mxCell id="o7-nBCWL6oB6dUf7lMq--27" value="&lt;span style=&quot;border-bottom: 1px dotted&quot;&gt;NumFase&lt;/span&gt;" style="ellipse;whiteSpace=wrap;html=1;align=center;fillColor=#fff2cc;strokeColor=#d6b656;" vertex="1" parent="1">
          <mxGeometry x="-320" y="850" width="100" height="40" as="geometry" />
        </mxCell>
        <mxCell id="o7-nBCWL6oB6dUf7lMq--28" value="&lt;u&gt;FechaEvento&lt;/u&gt;" style="ellipse;whiteSpace=wrap;html=1;align=center;fillColor=#fff2cc;strokeColor=#d6b656;" vertex="1" parent="1">
          <mxGeometry x="-330" y="745" width="100" height="40" as="geometry" />
        </mxCell>
        <mxCell id="o7-nBCWL6oB6dUf7lMq--29" value="" style="endArrow=none;html=1;rounded=0;exitX=0;exitY=0.5;exitDx=0;exitDy=0;entryX=1;entryY=0.5;entryDx=0;entryDy=0;" edge="1" parent="1" source="o7-nBCWL6oB6dUf7lMq--26" target="o7-nBCWL6oB6dUf7lMq--27">
          <mxGeometry relative="1" as="geometry">
            <mxPoint x="-160" y="733" as="sourcePoint" />
            <mxPoint x="-228.65615782363125" y="766.9176327466052" as="targetPoint" />
          </mxGeometry>
        </mxCell>
        <mxCell id="mH0adXcuigVSKNQ7jDRi-16" value="Medallero Olímpico" style="shape=ext;margin=3;double=1;whiteSpace=wrap;html=1;align=center;fillColor=#DAE8FC;" vertex="1" parent="1">
          <mxGeometry x="-740" y="230" width="100" height="40" as="geometry" />
        </mxCell>
        <mxCell id="cxBHX1C2nxwxFBKa3v35-31" value="" style="endArrow=none;html=1;rounded=0;entryX=0;entryY=0.25;entryDx=0;entryDy=0;exitX=1;exitY=0.5;exitDx=0;exitDy=0;" edge="1" parent="1" source="cxBHX1C2nxwxFBKa3v35-12" target="f1zBCqjC82hzsTpn4rTU-17">
          <mxGeometry width="50" height="50" relative="1" as="geometry">
            <mxPoint x="100" y="360" as="sourcePoint" />
            <mxPoint x="230" y="460" as="targetPoint" />
          </mxGeometry>
        </mxCell>
        <mxCell id="mH0adXcuigVSKNQ7jDRi-17" value="&lt;span style=&quot;border-bottom: 1px dotted&quot;&gt;Medalla&lt;/span&gt;" style="ellipse;whiteSpace=wrap;html=1;align=center;fillColor=#fff2cc;strokeColor=#d6b656;" vertex="1" parent="1">
          <mxGeometry x="-880" y="230" width="100" height="40" as="geometry" />
        </mxCell>
        <mxCell id="o7-nBCWL6oB6dUf7lMq--30" value="Tiene" style="shape=rhombus;double=1;perimeter=rhombusPerimeter;whiteSpace=wrap;html=1;align=center;fillColor=#d5e8d4;strokeColor=#82b366;" vertex="1" parent="1">
          <mxGeometry x="-180" y="765" width="120" height="60" as="geometry" />
        </mxCell>
        <mxCell id="o7-nBCWL6oB6dUf7lMq--31" value="" style="endArrow=block;html=1;rounded=0;entryX=0.5;entryY=1;entryDx=0;entryDy=0;exitX=0.5;exitY=0;exitDx=0;exitDy=0;shape=flexArrow;startArrow=none;startFill=0;" edge="1" parent="1" source="o7-nBCWL6oB6dUf7lMq--30" target="o7-nBCWL6oB6dUf7lMq--11">
          <mxGeometry relative="1" as="geometry">
            <mxPoint x="-15" y="746" as="sourcePoint" />
            <mxPoint x="-60" y="733" as="targetPoint" />
            <Array as="points" />
          </mxGeometry>
        </mxCell>
        <mxCell id="o7-nBCWL6oB6dUf7lMq--32" value="" style="endArrow=none;html=1;rounded=0;entryX=0.5;entryY=1;entryDx=0;entryDy=0;exitX=0.5;exitY=0;exitDx=0;exitDy=0;shape=link;" edge="1" parent="1" source="o7-nBCWL6oB6dUf7lMq--26" target="o7-nBCWL6oB6dUf7lMq--30">
          <mxGeometry relative="1" as="geometry">
            <mxPoint x="-110" y="775" as="sourcePoint" />
            <mxPoint x="-110" y="733" as="targetPoint" />
            <Array as="points" />
          </mxGeometry>
        </mxCell>
        <mxCell id="o7-nBCWL6oB6dUf7lMq--36" value="&lt;span style=&quot;font-weight: 700;&quot;&gt;Ganador&lt;/span&gt;" style="shape=ext;margin=3;double=1;whiteSpace=wrap;html=1;align=center;fillColor=#dae8fc;strokeColor=#6c8ebf;" vertex="1" parent="1">
          <mxGeometry x="-260" y="390" width="100" height="40" as="geometry" />
        </mxCell>
        <mxCell id="mH0adXcuigVSKNQ7jDRi-20" value="Ser" style="shape=rhombus;perimeter=rhombusPerimeter;whiteSpace=wrap;html=1;align=center;fillColor=#d5e8d4;strokeColor=#82b366;" vertex="1" parent="1">
          <mxGeometry x="-270" y="220" width="120" height="60" as="geometry" />
        </mxCell>
        <mxCell id="x0vdx9zo6-aAAzzMTheN-11" value="" style="endArrow=none;html=1;rounded=0;exitX=0.5;exitY=1;exitDx=0;exitDy=0;entryX=0.5;entryY=0;entryDx=0;entryDy=0;" edge="1" parent="1" source="f1zBCqjC82hzsTpn4rTU-14" target="mH0adXcuigVSKNQ7jDRi-20">
          <mxGeometry width="50" height="50" relative="1" as="geometry">
            <mxPoint x="57.76880699088156" y="180.27999999999997" as="sourcePoint" />
            <mxPoint x="-80.23119300911844" y="265.28" as="targetPoint" />
          </mxGeometry>
        </mxCell>
        <mxCell id="f1zBCqjC82hzsTpn4rTU-52" value="Correo" style="ellipse;shape=doubleEllipse;margin=3;whiteSpace=wrap;html=1;align=center;" vertex="1" parent="1">
          <mxGeometry x="400" y="-120" width="100" height="40" as="geometry" />
        </mxCell>
        <mxCell id="o7-nBCWL6oB6dUf7lMq--37" value="" style="endArrow=none;html=1;rounded=0;" edge="1" parent="1" source="f1zBCqjC82hzsTpn4rTU-13" target="f1zBCqjC82hzsTpn4rTU-52">
          <mxGeometry relative="1" as="geometry">
            <mxPoint x="370" y="-116" as="sourcePoint" />
            <mxPoint x="541.7642401824942" y="-134.7340873561675" as="targetPoint" />
          </mxGeometry>
        </mxCell>
        <mxCell id="o7-nBCWL6oB6dUf7lMq--42" value="" style="endArrow=none;html=1;rounded=0;entryX=0;entryY=0.5;entryDx=0;entryDy=0;exitX=1;exitY=0.5;exitDx=0;exitDy=0;" edge="1" parent="1" source="mH0adXcuigVSKNQ7jDRi-17" target="mH0adXcuigVSKNQ7jDRi-16">
          <mxGeometry width="50" height="50" relative="1" as="geometry">
            <mxPoint x="-430" y="390" as="sourcePoint" />
            <mxPoint x="-349.9999999999998" y="390" as="targetPoint" />
          </mxGeometry>
        </mxCell>
        <mxCell id="x0vdx9zo6-aAAzzMTheN-17" value="" style="shape=link;html=1;rounded=0;exitX=0.5;exitY=1;exitDx=0;exitDy=0;entryX=0.5;entryY=0;entryDx=0;entryDy=0;" edge="1" parent="1" source="mH0adXcuigVSKNQ7jDRi-20" target="o7-nBCWL6oB6dUf7lMq--36">
          <mxGeometry width="100" relative="1" as="geometry">
            <mxPoint x="-240" y="250" as="sourcePoint" />
            <mxPoint x="-110" y="260" as="targetPoint" />
            <Array as="points" />
          </mxGeometry>
        </mxCell>
        <mxCell id="o7-nBCWL6oB6dUf7lMq--47" value="" style="endArrow=none;html=1;rounded=0;exitX=0.942;exitY=0.55;exitDx=0;exitDy=0;shape=link;exitPerimeter=0;entryX=0;entryY=0.5;entryDx=0;entryDy=0;" edge="1" parent="1" source="o7-nBCWL6oB6dUf7lMq--46" target="mH0adXcuigVSKNQ7jDRi-20">
          <mxGeometry width="50" height="50" relative="1" as="geometry">
            <mxPoint x="-393" y="230" as="sourcePoint" />
            <mxPoint x="-393" y="280" as="targetPoint" />
            <Array as="points" />
          </mxGeometry>
        </mxCell>
        <mxCell id="o7-nBCWL6oB6dUf7lMq--48" value="" style="endArrow=none;html=1;rounded=0;exitX=1;exitY=0.5;exitDx=0;exitDy=0;shape=flexArrow;startArrow=block;" edge="1" parent="1" source="mH0adXcuigVSKNQ7jDRi-16">
          <mxGeometry width="50" height="50" relative="1" as="geometry">
            <mxPoint x="-553" y="40" as="sourcePoint" />
            <mxPoint x="-580" y="250" as="targetPoint" />
          </mxGeometry>
        </mxCell>
        <mxCell id="x0vdx9zo6-aAAzzMTheN-20" value="TipoDeMedalla" style="ellipse;whiteSpace=wrap;html=1;align=center;" vertex="1" parent="1">
          <mxGeometry x="-1010" y="230" width="100" height="40" as="geometry" />
        </mxCell>
        <mxCell id="x0vdx9zo6-aAAzzMTheN-23" value="" style="endArrow=none;html=1;rounded=0;" edge="1" parent="1" source="x0vdx9zo6-aAAzzMTheN-20" target="mH0adXcuigVSKNQ7jDRi-17">
          <mxGeometry width="50" height="50" relative="1" as="geometry">
            <mxPoint x="-232.23119300911844" y="330.28" as="sourcePoint" />
            <mxPoint x="-370.23119300911844" y="415.28" as="targetPoint" />
          </mxGeometry>
        </mxCell>
        <mxCell id="o7-nBCWL6oB6dUf7lMq--50" value="&lt;span style=&quot;border-bottom: 1px dotted&quot;&gt;Medalla&lt;/span&gt;" style="ellipse;whiteSpace=wrap;html=1;align=center;" vertex="1" parent="1">
          <mxGeometry x="-260" y="460" width="100" height="40" as="geometry" />
        </mxCell>
        <mxCell id="VmTo_N5zFxjS8z5mR34c-2" value="" style="endArrow=none;html=1;rounded=0;entryX=0;entryY=0.5;entryDx=0;entryDy=0;exitX=1;exitY=0.5;exitDx=0;exitDy=0;" edge="1" parent="1" source="cxBHX1C2nxwxFBKa3v35-3" target="fMwPx2uLLaWgfthnUd-A-1">
          <mxGeometry width="50" height="50" relative="1" as="geometry">
            <mxPoint x="420" y="460" as="sourcePoint" />
            <mxPoint x="470" y="410" as="targetPoint" />
          </mxGeometry>
        </mxCell>
        <mxCell id="VmTo_N5zFxjS8z5mR34c-5" value="" style="endArrow=none;html=1;rounded=0;exitX=0.996;exitY=0.606;exitDx=0;exitDy=0;exitPerimeter=0;entryX=0.033;entryY=0.578;entryDx=0;entryDy=0;entryPerimeter=0;" edge="1" parent="1" source="f1zBCqjC82hzsTpn4rTU-14" target="f1zBCqjC82hzsTpn4rTU-43">
          <mxGeometry width="50" height="50" relative="1" as="geometry">
            <mxPoint x="-10" y="220" as="sourcePoint" />
            <mxPoint x="40" y="170" as="targetPoint" />
          </mxGeometry>
        </mxCell>
        <mxCell id="VmTo_N5zFxjS8z5mR34c-6" value="" style="endArrow=none;html=1;rounded=0;exitX=0.946;exitY=0.574;exitDx=0;exitDy=0;exitPerimeter=0;entryX=-0.006;entryY=0.635;entryDx=0;entryDy=0;entryPerimeter=0;" edge="1" parent="1" source="f1zBCqjC82hzsTpn4rTU-43" target="f1zBCqjC82hzsTpn4rTU-15">
          <mxGeometry width="50" height="50" relative="1" as="geometry">
            <mxPoint x="76" y="120" as="sourcePoint" />
            <mxPoint x="260" y="121" as="targetPoint" />
          </mxGeometry>
        </mxCell>
        <mxCell id="VmTo_N5zFxjS8z5mR34c-7" value="TotalMedallas" style="ellipse;whiteSpace=wrap;html=1;align=center;" vertex="1" parent="1">
          <mxGeometry x="-570" y="350" width="100" height="40" as="geometry" />
        </mxCell>
        <mxCell id="VmTo_N5zFxjS8z5mR34c-8" value="" style="endArrow=none;html=1;rounded=0;exitX=0.5;exitY=1;exitDx=0;exitDy=0;entryX=0.5;entryY=0;entryDx=0;entryDy=0;" edge="1" parent="1" source="o7-nBCWL6oB6dUf7lMq--46" target="VmTo_N5zFxjS8z5mR34c-7">
          <mxGeometry width="50" height="50" relative="1" as="geometry">
            <mxPoint x="-563" y="430" as="sourcePoint" />
            <mxPoint x="-563" y="480" as="targetPoint" />
          </mxGeometry>
        </mxCell>
        <mxCell id="kZpZy9EIuxyFH9RG38M0-2" value="" style="swimlane;startSize=0;" vertex="1" parent="1">
          <mxGeometry x="-430" y="-80" width="280" height="590" as="geometry" />
        </mxCell>
        <mxCell id="mH0adXcuigVSKNQ7jDRi-5" value="País" style="whiteSpace=wrap;html=1;align=center;fillColor=#dae8fc;strokeColor=#6c8ebf;fontStyle=1" vertex="1" parent="kZpZy9EIuxyFH9RG38M0-2">
          <mxGeometry x="10" y="90" width="100" height="40" as="geometry" />
        </mxCell>
        <mxCell id="o7-nBCWL6oB6dUf7lMq--46" value="Contabiliza" style="shape=rhombus;perimeter=rhombusPerimeter;whiteSpace=wrap;html=1;align=center;" vertex="1" parent="1">
          <mxGeometry x="-580" y="220" width="120" height="60" as="geometry" />
        </mxCell>
      </root>
    </mxGraphModel>
  </diagram>
</mxfile>
